<?xml version="1.0" encoding="UTF-8"?>
<svg version="1.1" xmlns="http://www.w3.org/2000/svg" width="297" height="293">
<path d="M0 0 C98.01 0 196.02 0 297 0 C297 96.69 297 193.38 297 293 C198.99 293 100.98 293 0 293 C0 196.31 0 99.62 0 0 Z " fill="#277DA0" transform="translate(0,0)"/>
<path d="M0 0 C6.44035912 8.58714549 7.02016295 18.40226529 6.0625 28.75 C2.87328809 44.74563277 -4.67340807 58.24856668 -14.9375 70.75 C-15.50082031 71.44867188 -16.06414062 72.14734375 -16.64453125 72.8671875 C-18.02401031 74.53867308 -19.47459982 76.15101608 -20.9375 77.75 C-21.5975 77.75 -22.2575 77.75 -22.9375 77.75 C-22.9375 78.41 -22.9375 79.07 -22.9375 79.75 C-24.23046875 81.03930664 -24.23046875 81.03930664 -26.125 82.59765625 C-31.70596805 87.35304459 -36.98330536 92.3933574 -42.22216797 97.51977539 C-43.37221918 98.63790802 -44.53024126 99.74789645 -45.69580078 100.84985352 C-47.40016508 102.46292109 -49.07678297 104.10081293 -50.75 105.74609375 C-51.27174805 106.22968857 -51.79349609 106.71328339 -52.33105469 107.21153259 C-55.1368637 110.03284808 -55.92453824 111.63818367 -56.38671875 115.62524414 C-56.10029842 119.8075407 -55.06570144 123.72843483 -53.9375 127.75 C-53.37368532 130.19974016 -52.81923017 132.65165046 -52.2734375 135.10546875 C-52.1203009 135.79330948 -51.96716431 136.48115021 -51.80938721 137.18983459 C-51.30921847 139.43879034 -50.81078216 141.68812557 -50.3125 143.9375 C-50.05421417 145.10061707 -50.05421417 145.10061707 -49.79071045 146.28723145 C-46.6532497 160.41751579 -43.58359595 174.56216621 -40.55224609 188.71557617 C-40.3916571 189.46302597 -40.23106812 190.21047577 -40.06561279 190.98057556 C-39.63341208 192.99237237 -39.20263567 195.00447502 -38.77197266 197.01660156 C-38.16933823 199.71276472 -37.53322007 202.38371732 -36.85229492 205.05981445 C-34.9212357 212.84950224 -35.21158832 220.53815062 -38.9375 227.75 C-44.44550383 236.18456225 -51.53808385 239.59998097 -61.0078125 242.3515625 C-68.25721457 243.8484026 -73.94665633 242.80080633 -80.515625 239.52734375 C-87.04945591 234.73235494 -91.29717208 227.45496452 -95.65625 220.7578125 C-96.58769836 219.33974808 -96.58769836 219.33974808 -97.53796387 217.89303589 C-99.50907593 214.89001018 -101.47343602 211.8826389 -103.4375 208.875 C-104.75605391 206.86298201 -106.07506023 204.85126042 -107.39453125 202.83984375 C-109.2613278 199.99380901 -111.12749294 197.14738499 -112.9901123 194.2986145 C-116.60993248 188.76259866 -120.25851576 183.24688314 -123.9375 177.75 C-127.08111269 178.97791197 -129.87192814 180.20818427 -132.671875 182.09765625 C-133.32800781 182.53787109 -133.98414063 182.97808594 -134.66015625 183.43164062 C-135.66369141 184.11516602 -135.66369141 184.11516602 -136.6875 184.8125 C-137.37199219 185.27205078 -138.05648437 185.73160156 -138.76171875 186.20507812 C-142.0026815 188.28432383 -142.0026815 188.28432383 -144.9375 190.75 C-145.07209153 192.95836113 -145.14121343 195.17075968 -145.18359375 197.3828125 C-145.21656652 198.7604222 -145.24977752 200.13802621 -145.28320312 201.515625 C-145.33037077 203.68778058 -145.37472521 205.85991909 -145.41430664 208.03222656 C-145.45439832 210.12851744 -145.50588514 212.22430596 -145.55859375 214.3203125 C-145.59617798 216.20387451 -145.59617798 216.20387451 -145.63452148 218.12548828 C-146.17728241 224.61850096 -147.43604583 228.9251264 -152.25 233.375 C-153.05308594 234.13296875 -153.85617188 234.8909375 -154.68359375 235.671875 C-155.42738281 236.35765625 -156.17117187 237.0434375 -156.9375 237.75 C-157.90170891 238.70242151 -158.86146516 239.65942334 -159.8125 240.625 C-160.51375 241.32625 -161.215 242.0275 -161.9375 242.75 C-162.370625 243.3275 -162.80375 243.905 -163.25 244.5 C-166.1891034 246.67711363 -169.39795774 246.92697711 -172.9375 246.75 C-182.13347922 243.46572171 -186.89781394 233.73241738 -191.48828125 225.62109375 C-201.28156819 208.61542221 -212.01494297 199.4182239 -228.86669922 189.58056641 C-243.87447561 180.6341276 -243.87447561 180.6341276 -245.546875 174.5234375 C-245.79203935 170.34202323 -245.57323659 167.7007412 -243.203125 164.15625 C-240.88177722 161.56274421 -238.45438349 159.15336931 -235.9375 156.75 C-235.22207031 155.97914063 -234.50664062 155.20828125 -233.76953125 154.4140625 C-229.07322696 149.38165907 -225.59620237 146.90118816 -218.44580078 146.60571289 C-217.18751465 146.6443042 -215.92922852 146.68289551 -214.6328125 146.72265625 C-213.23049303 146.73646207 -211.82814341 146.7474418 -210.42578125 146.75585938 C-208.24248939 146.77621584 -206.06510367 146.81239878 -203.88330078 146.8972168 C-194.92930762 147.37394271 -194.92930762 147.37394271 -187.25512695 143.38818359 C-185.21363505 140.59161294 -183.55186226 137.80880564 -181.9375 134.75 C-180.93419052 133.23822264 -179.917013 131.73536514 -178.875 130.25 C-177.63229519 128.4942146 -177.63229519 128.4942146 -176.9375 126.75 C-178.16901217 123.05546348 -179.12620917 122.74922631 -182.40234375 120.78125 C-183.39991699 120.16765625 -184.39749023 119.5540625 -185.42529297 118.921875 C-185.98416199 118.57898438 -186.54303101 118.23609375 -187.11883545 117.8828125 C-190.55639431 115.74162069 -193.93258405 113.50600877 -197.31640625 111.28125 C-198.05974213 110.79342041 -198.803078 110.30559082 -199.56893921 109.80297852 C-201.10346215 108.79569269 -202.63768946 107.78795637 -204.17163086 106.77978516 C-206.49809118 105.25125413 -208.82615481 103.72518667 -211.15429688 102.19921875 C-217.39878077 98.10149215 -223.6419925 93.99946888 -229.80859375 89.78515625 C-230.53876709 89.28636963 -231.26894043 88.78758301 -232.02124023 88.27368164 C-237.6316552 83.81265478 -241.29007217 77.88895839 -242.1875 70.765625 C-242.78423149 60.24823244 -237.80365665 50.46400191 -230.9375 42.75 C-224.3978083 37.34169983 -218.29408674 36.33882704 -209.9375 36.75 C-207.01254677 37.16474465 -204.15033284 37.78750684 -201.26953125 38.4375 C-200.03800575 38.7047438 -200.03800575 38.7047438 -198.78160095 38.97738647 C-196.10265263 39.56056552 -193.42639827 40.15523822 -190.75 40.75 C-188.88005965 41.1591749 -187.00993979 41.56753017 -185.13964844 41.97509766 C-181.299397 42.81303118 -177.46012565 43.65525482 -173.62158203 44.50097656 C-165.76586665 46.23012643 -157.90234582 47.92292378 -150.03915405 49.61767578 C-147.03610698 50.26552554 -144.03357771 50.91574788 -141.03120422 51.56671143 C-139.64425705 51.86702251 -138.25712598 52.1664857 -136.86979675 52.46502686 C-133.57532975 53.17434329 -130.28431118 53.89513312 -126.99804688 54.64160156 C-125.76634766 54.91713867 -124.53464844 55.19267578 -123.265625 55.4765625 C-122.18700195 55.72229004 -121.10837891 55.96801758 -119.99707031 56.22119141 C-116.79709121 56.77426791 -114.17713794 57.04543436 -110.9375 56.75 C-108.48980094 55.13312509 -108.48980094 55.13312509 -106.34765625 52.76196289 C-105.0647168 51.45413597 -105.0647168 51.45413597 -103.75585938 50.11988831 C-102.84642578 49.16380173 -101.93699219 48.20771515 -101 47.22265625 C-100.03491333 46.23363408 -99.06808361 45.24631008 -98.09960938 44.26060486 C-95.02838815 41.12772079 -91.98192682 37.97139525 -88.9375 34.8125 C-63.77743715 8.72892004 -63.77743715 8.72892004 -51.9375 2.75 C-50.7937793 2.16448364 -50.7937793 2.16448364 -49.62695312 1.56713867 C-35.20195693 -5.24643807 -13.81842307 -10.58432405 0 0 Z " fill="#CFCFD0" transform="translate(268.9375,28.25)"/>
<path d="M0 0 C1.42164061 4.60256148 0.44203457 8.18500984 -1 12.625 C-1.34502563 13.69004761 -1.34502563 13.69004761 -1.69702148 14.77661133 C-8.68851805 35.25054974 -28.24512011 50.35969427 -43.1875 65.1875 C-46.72550979 68.6989676 -50.26021172 72.21371756 -53.79296875 75.73046875 C-54.6032402 76.53244186 -55.41351166 77.33441498 -56.24833679 78.16069031 C-56.99033829 78.89938858 -57.73233978 79.63808685 -58.49682617 80.39916992 C-59.15124191 81.04834885 -59.80565765 81.69752777 -60.47990417 82.36637878 C-63.23168869 85.32367496 -63.20643894 87.71647619 -63.15161133 91.68295288 C-62.88115786 95.81624184 -61.98519472 99.79454046 -61.09375 103.83203125 C-60.79314415 105.23850166 -60.79314415 105.23850166 -60.48646545 106.67338562 C-59.83248383 109.72158486 -59.1665262 112.76702146 -58.5 115.8125 C-58.04369974 117.92567557 -57.58789348 120.03895786 -57.13256836 122.15234375 C-54.06642244 136.33324326 -50.90133431 150.49193759 -47.6015625 164.62036133 C-46.0911992 171.09693371 -44.62587798 177.5814956 -43.27734375 184.09375 C-43.03105225 185.27646484 -42.78476074 186.45917969 -42.53100586 187.67773438 C-42.01531549 190.90417787 -41.67697911 193.74560142 -42 197 C-45 199 -45 199 -47.36010742 199.08325195 C-51.43281541 197.41205938 -52.9568911 194.31448904 -55.23828125 190.66796875 C-55.72274216 189.92098221 -56.20720306 189.17399567 -56.7063446 188.40437317 C-58.25623564 186.00773611 -59.78462667 183.59821954 -61.3125 181.1875 C-62.32865604 179.60650695 -63.34622047 178.02641818 -64.36523438 176.44726562 C-66.34602237 173.37491127 -68.31964969 170.29814204 -70.28833008 167.21801758 C-73.21478151 162.65041818 -76.21757418 158.13824838 -79.24145508 153.63452148 C-80.9304287 151.10422656 -82.58585092 148.55538175 -84.23046875 145.99609375 C-84.72353516 145.23619141 -85.21660156 144.47628906 -85.72460938 143.69335938 C-86.71940097 142.15933495 -87.70610315 140.6200408 -88.68554688 139.07617188 C-92.27164014 133.59072486 -94.90351863 130.85099603 -101.3828125 129.0703125 C-105.86739659 128.98313916 -108.31205714 130.41424207 -111.875 132.875 C-112.86258301 133.5249292 -112.86258301 133.5249292 -113.87011719 134.18798828 C-115.37847737 135.18733633 -116.87997531 136.19708778 -118.37597656 137.21484375 C-120.83184767 138.88560385 -123.29951199 140.53771087 -125.77114868 142.18502808 C-128.6024905 144.07417444 -131.42671721 145.97383821 -134.25 147.875 C-134.8031488 148.24671326 -135.35629761 148.61842651 -135.9262085 149.00140381 C-137.52192883 150.07661438 -139.11261131 151.15928984 -140.703125 152.2421875 C-141.62770508 152.8697998 -142.55228516 153.49741211 -143.50488281 154.14404297 C-147.05684471 156.78611874 -149.58204314 158.74612942 -151 163 C-151.15109093 165.20959253 -151.24873801 167.42300047 -151.31640625 169.63671875 C-151.37924805 171.58481445 -151.37924805 171.58481445 -151.44335938 173.57226562 C-151.48316987 174.94400761 -151.52288216 176.31575244 -151.5625 177.6875 C-151.60570835 179.07097645 -151.64932339 180.45444027 -151.69335938 181.83789062 C-151.79958028 185.22515719 -151.90162358 188.61249799 -152 192 C-154.89992282 189.21476169 -157.43875205 186.68304999 -159.3671875 183.14453125 C-165.27316986 172.88490848 -171.07415981 166.85428678 -181.32617188 160.98730469 C-184.77682901 158.95194042 -187.87095225 156.49046658 -191 154 C-191 153.67 -191 153.34 -191 153 C-190.12263184 152.9906543 -189.24526367 152.98130859 -188.34130859 152.97167969 C-185.06432578 152.92748397 -181.78861857 152.86579348 -178.51220703 152.79248047 C-177.09826552 152.76437608 -175.68416998 152.74310933 -174.27001953 152.72900391 C-172.22869616 152.70742544 -170.18920401 152.66070914 -168.1484375 152.609375 C-166.92302246 152.58842773 -165.69760742 152.56748047 -164.43505859 152.54589844 C-158.97218728 151.67774064 -156.06763751 149.35710142 -152.68579102 145.05834961 C-151.94628362 143.93093091 -151.21947865 142.79510368 -150.50390625 141.65234375 C-150.1072728 141.04040665 -149.71063934 140.42846954 -149.30198669 139.79798889 C-148.04412228 137.85153729 -146.80317358 135.89494268 -145.5625 133.9375 C-144.73481924 132.6509874 -143.90605112 131.36517367 -143.07617188 130.08007812 C-141.45995695 127.57363271 -139.8552353 125.06040293 -138.25927734 122.54101562 C-136.82166719 120.27493786 -135.35818045 118.03675581 -133.86962891 115.80273438 C-133.23589355 114.84560547 -132.6021582 113.88847656 -131.94921875 112.90234375 C-131.39451904 112.07855225 -130.83981934 111.25476074 -130.26831055 110.40600586 C-128.1163868 106.3237713 -127.88317666 102.4430146 -129 98 C-134.5798849 90.00216498 -146.14228486 84.53117511 -154.25 79.21875 C-155.18875977 78.60157104 -156.12751953 77.98439209 -157.09472656 77.34851074 C-160.06223038 75.39760149 -163.03095221 73.44855858 -166 71.5 C-169.9177912 68.9287899 -173.8342759 66.35560672 -177.75 63.78125 C-178.62946289 63.20499878 -179.50892578 62.62874756 -180.41503906 62.03503418 C-186.35386118 58.13027556 -192.19808608 54.10529599 -198 50 C-197.125 45.25 -197.125 45.25 -196 43 C-187.60733327 43.55619057 -179.64037547 45.3260407 -171.48538208 47.26626587 C-167.59002947 48.19223791 -163.68991465 49.09751521 -159.7890625 50 C-159.02467361 50.17694901 -158.26028473 50.35389801 -157.47273254 50.53620911 C-151.36186162 51.94005392 -145.2309069 53.18654397 -139.0625 54.3125 C-133.11790958 55.39771005 -127.27655475 56.61654507 -121.42578125 58.140625 C-116.40495874 59.40012438 -111.36288002 60.55305193 -106.3125 61.6875 C-105.33748535 61.91429443 -104.3624707 62.14108887 -103.35791016 62.37475586 C-92.97334929 64.9448798 -92.97334929 64.9448798 -83.08618164 62.31420898 C-79.91260144 59.93446318 -77.22186872 57.41674238 -74.453125 54.578125 C-73.955849 54.07327576 -73.458573 53.56842651 -72.94622803 53.04827881 C-71.37582499 51.45366156 -69.81215635 49.85269423 -68.25 48.25 C-66.17757627 46.12451818 -64.09869638 44.00566645 -62.015625 41.890625 C-60.64325684 40.48345215 -60.64325684 40.48345215 -59.24316406 39.04785156 C-57 37 -57 37 -55 37 C-54.67 36.01 -54.34 35.02 -54 34 C-53.34 34 -52.68 34 -52 34 C-51.6596875 33.13375 -51.6596875 33.13375 -51.3125 32.25 C-49.65238361 29.40408619 -47.60812043 28.00158079 -45 26 C-42.51708125 23.57813663 -40.10498903 21.11317708 -37.74609375 18.5703125 C-28.12735642 8.3819376 -14.64699353 -0.67435514 0 0 Z " fill="#287DA0" transform="translate(250,47)"/>
</svg>
